<svg xmlns="http://www.w3.org/2000/svg" viewBox="0 0 48 48" width="48" height="48">
  <!-- Outer frames -->
  <rect x="6" y="6" width="4" height="36" fill="#141c2c" />
  <rect x="22" y="6" width="3" height="36" fill="#141c2c" />
  <rect x="38" y="6" width="4" height="36" fill="#141c2c" />

  <!-- Crossbeams Level 1 -->
  <rect x="10" y="22" width="28" height="3" fill="#141c2c" />
  <!-- Crossbeams Level 2 -->
  <rect x="10" y="36" width="28" height="3" fill="#141c2c" />

  <!-- Pallets & loads on Level 1 -->
  <rect x="12" y="14" width="8" height="6" rx="1" fill="#147487" />
  <rect x="11" y="20" width="10" height="2" fill="#141c2c" />

  <rect x="27" y="12" width="9" height="8" rx="1" fill="#147487" />
  <rect x="26" y="20" width="11" height="2" fill="#141c2c" />

  <!-- Pallets & loads on Level 2 -->
  <rect x="12" y="28" width="8" height="6" rx="1" fill="#147487" />
  <rect x="11" y="34" width="10" height="2" fill="#141c2c" />

  <rect x="28" y="27" width="8" height="7" rx="1" fill="#147487" />
  <rect x="27" y="34" width="10" height="2" fill="#141c2c" />

  <!-- Yellow safety guards on upright base -->
  <path d="M 5 38 L 11 38 L 11 42 L 5 42 Z" fill="#eab308" />
  <path d="M 37 38 L 43 38 L 43 42 L 37 42 Z" fill="#eab308" />
</svg>
