<svg xmlns="http://www.w3.org/2000/svg" viewBox="0 0 48 48" width="48" height="48">
  <!-- Hard Hat Dome -->
  <path d="M 10 26 C 10 14 16 10 24 10 C 32 10 38 14 38 26 Z" fill="#141c2c" />
  <!-- Brim -->
  <path d="M 6 25 L 42 25 L 40 28 L 8 28 Z" fill="#141c2c" />

  <!-- Safety Goggles -->
  <path d="M 14 32 C 14 30 18 30 20 32 C 22 34 22 36 20 38 C 18 40 14 40 14 36 Z" fill="#147487" />
  <path d="M 34 32 C 34 30 30 30 28 32 C 26 34 26 36 28 38 C 30 40 34 40 34 36 Z" fill="#147487" />
  <rect x="20" y="32" width="8" height="2" fill="#147487" />

  <!-- Helmet ridge / lamp mount -->
  <path d="M 22 10 L 26 10 L 26 16 L 22 16 Z" fill="#147487" />
  <rect x="23" y="11" width="2" height="2" fill="#eab308" />
</svg>
